<svg width="48" height="48" viewBox="0 0 48 48" fill="none" xmlns="http://www.w3.org/2000/svg">
<path d="M24.0001 0.666672C11.1201 0.666672 0.666748 11.12 0.666748 24C0.666748 36.88 11.1201 47.3333 24.0001 47.3333C36.8801 47.3333 47.3334 36.88 47.3334 24C47.3334 11.12 36.8801 0.666672 24.0001 0.666672ZM24.0001 7.66667C27.8734 7.66667 31.0001 10.7933 31.0001 14.6667C31.0001 18.54 27.8734 21.6667 24.0001 21.6667C20.1267 21.6667 17.0001 18.54 17.0001 14.6667C17.0001 10.7933 20.1267 7.66667 24.0001 7.66667ZM24.0001 40.8C18.1667 40.8 13.0101 37.8133 10.0001 33.2867C10.0701 28.6433 19.3334 26.1 24.0001 26.1C28.6434 26.1 37.9301 28.6433 38.0001 33.2867C34.9901 37.8133 29.8334 40.8 24.0001 40.8Z" fill="#BDBDBD"/>
</svg>
