<svg width="28" height="14" viewBox="0 0 28 14" fill="none" xmlns="http://www.w3.org/2000/svg">
<path d="M20.6667 0.333328H15.3334V2.99999H20.6667C22.8667 2.99999 24.6667 4.79999 24.6667 6.99999C24.6667 9.19999 22.8667 11 20.6667 11H15.3334V13.6667H20.6667C24.3467 13.6667 27.3334 10.68 27.3334 6.99999C27.3334 3.31999 24.3467 0.333328 20.6667 0.333328ZM12.6667 11H7.33342C5.13341 11 3.33341 9.19999 3.33341 6.99999C3.33341 4.79999 5.13341 2.99999 7.33342 2.99999H12.6667V0.333328H7.33342C3.65341 0.333328 0.666748 3.31999 0.666748 6.99999C0.666748 10.68 3.65341 13.6667 7.33342 13.6667H12.6667V11ZM8.66675 5.66666H19.3334V8.33333H8.66675V5.66666Z" fill="#FFD600"/>
</svg>
